<?xml version="1.0"?>
<svg xmlns="http://www.w3.org/2000/svg" width="512" height="512" viewBox="0 0 128 128"><g><path d="M106.5,0h-85a7.759,7.759,0,0,0-7.75,7.75v112.5A7.759,7.759,0,0,0,21.5,128h85a7.759,7.759,0,0,0,7.75-7.75V7.748A7.759,7.759,0,0,0,106.5,0Zm4.25,120.248a4.254,4.254,0,0,1-4.25,4.25h-85a4.254,4.254,0,0,1-4.25-4.25V7.748A4.254,4.254,0,0,1,21.5,3.5h85a4.254,4.254,0,0,1,4.25,4.25Z"/><path d="M102.5,10h-77a1.749,1.749,0,0,0-1.75,1.75v22A1.749,1.749,0,0,0,25.5,35.5h77a1.749,1.749,0,0,0,1.75-1.75v-22A1.749,1.749,0,0,0,102.5,10Zm-1.75,22H27.25V13.5h73.5Z"/><path d="M73.5,97.523h-19a1.75,1.75,0,0,0-1.75,1.75v16.973A1.749,1.749,0,0,0,54.5,118h19a1.749,1.749,0,0,0,1.75-1.75V99.273A1.75,1.75,0,0,0,73.5,97.523ZM71.749,114.5h-15.5V101.023h15.5Z"/><path d="M44.529,97.523H25.5a1.75,1.75,0,0,0-1.75,1.75v16.973A1.749,1.749,0,0,0,25.5,118H44.529a1.749,1.749,0,0,0,1.75-1.75V99.273A1.75,1.75,0,0,0,44.529,97.523ZM42.779,114.5H27.25V101.023H42.779Z"/><path d="M73.5,69.766h-19a1.749,1.749,0,0,0-1.75,1.75V88.488a1.749,1.749,0,0,0,1.75,1.75h19a1.749,1.749,0,0,0,1.75-1.75V71.516A1.749,1.749,0,0,0,73.5,69.766Zm-1.75,16.972h-15.5V73.266h15.5Z"/><path d="M44.529,69.766H25.5a1.749,1.749,0,0,0-1.75,1.75V88.488a1.749,1.749,0,0,0,1.75,1.75H44.529a1.749,1.749,0,0,0,1.75-1.75V71.516A1.749,1.749,0,0,0,44.529,69.766Zm-1.75,16.972H27.25V73.266H42.779Z"/><path d="M102.5,69.766H83.471a1.749,1.749,0,0,0-1.75,1.75v44.73a1.749,1.749,0,0,0,1.75,1.75H102.5a1.749,1.749,0,0,0,1.75-1.75V71.516A1.749,1.749,0,0,0,102.5,69.766Zm-1.75,44.73H85.221V73.266H100.75Z"/><path d="M73.5,42.008h-19a1.749,1.749,0,0,0-1.75,1.75V60.73a1.749,1.749,0,0,0,1.75,1.75h19a1.749,1.749,0,0,0,1.75-1.75V43.758A1.749,1.749,0,0,0,73.5,42.008ZM71.749,58.98h-15.5V45.508h15.5Z"/><path d="M44.529,42.008H25.5a1.749,1.749,0,0,0-1.75,1.75V60.73a1.749,1.749,0,0,0,1.75,1.75H44.529a1.749,1.749,0,0,0,1.75-1.75V43.758A1.749,1.749,0,0,0,44.529,42.008ZM42.779,58.98H27.25V45.508H42.779Z"/><path d="M102.5,42.008H83.471a1.749,1.749,0,0,0-1.75,1.75V60.73a1.749,1.749,0,0,0,1.75,1.75H102.5a1.749,1.749,0,0,0,1.75-1.75V43.758A1.749,1.749,0,0,0,102.5,42.008ZM100.75,58.98H85.221V45.508H100.75Z"/></g></svg>
